<svg xmlns="http://www.w3.org/2000/svg" xmlns:xlink="http://www.w3.org/1999/xlink" width="90" zoomAndPan="magnify" viewBox="0 0 75 74.999997" height="90" preserveAspectRatio="xMidYMid meet" version="1.0"><defs><g/><clipPath id="942bb350fe"><path d="M 7.5 3.816406 L 67.5 3.816406 L 67.5 63.816406 L 7.5 63.816406 Z M 7.5 3.816406 " clip-rule="nonzero"/></clipPath><clipPath id="246e28eeae"><path d="M 41.207031 31.207031 L 52.75 31.207031 L 52.75 43.636719 L 41.207031 43.636719 Z M 41.207031 31.207031 " clip-rule="nonzero"/></clipPath><clipPath id="0909ac7b7c"><path d="M 45 22.515625 L 49 22.515625 L 49 28 L 45 28 Z M 45 22.515625 " clip-rule="nonzero"/></clipPath><clipPath id="6e655e97f8"><path d="M 41.910156 22.515625 L 51.679688 22.515625 L 51.679688 28.730469 L 41.910156 28.730469 Z M 41.910156 22.515625 " clip-rule="nonzero"/></clipPath></defs><g clip-path="url(#942bb350fe)"><path fill="#ffffff" d="M 67.5 33.816406 C 67.5 34.800781 67.453125 35.78125 67.355469 36.757812 C 67.257812 37.734375 67.117188 38.707031 66.921875 39.671875 C 66.730469 40.632812 66.492188 41.585938 66.207031 42.527344 C 65.921875 43.464844 65.59375 44.390625 65.214844 45.296875 C 64.839844 46.207031 64.421875 47.09375 63.957031 47.960938 C 63.496094 48.828125 62.988281 49.667969 62.445312 50.484375 C 61.898438 51.300781 61.3125 52.089844 60.691406 52.851562 C 60.066406 53.609375 59.40625 54.335938 58.714844 55.03125 C 58.019531 55.726562 57.292969 56.386719 56.53125 57.007812 C 55.773438 57.632812 54.984375 58.214844 54.167969 58.761719 C 53.351562 59.308594 52.507812 59.8125 51.640625 60.277344 C 50.773438 60.738281 49.886719 61.160156 48.980469 61.535156 C 48.074219 61.910156 47.148438 62.242188 46.207031 62.527344 C 45.269531 62.8125 44.316406 63.050781 43.351562 63.242188 C 42.390625 63.433594 41.417969 63.578125 40.441406 63.671875 C 39.460938 63.769531 38.484375 63.816406 37.5 63.816406 C 36.515625 63.816406 35.539062 63.769531 34.558594 63.671875 C 33.582031 63.578125 32.609375 63.433594 31.648438 63.242188 C 30.683594 63.050781 29.730469 62.8125 28.792969 62.527344 C 27.851562 62.242188 26.925781 61.910156 26.019531 61.535156 C 25.113281 61.160156 24.226562 60.738281 23.359375 60.277344 C 22.492188 59.8125 21.648438 59.308594 20.832031 58.761719 C 20.015625 58.214844 19.226562 57.632812 18.46875 57.007812 C 17.707031 56.386719 16.980469 55.726562 16.285156 55.03125 C 15.59375 54.335938 14.933594 53.609375 14.308594 52.851562 C 13.6875 52.089844 13.101562 51.300781 12.554688 50.484375 C 12.011719 49.667969 11.503906 48.828125 11.042969 47.960938 C 10.578125 47.09375 10.160156 46.207031 9.785156 45.296875 C 9.40625 44.390625 9.078125 43.464844 8.792969 42.527344 C 8.507812 41.585938 8.269531 40.632812 8.078125 39.671875 C 7.882812 38.707031 7.742188 37.734375 7.644531 36.757812 C 7.546875 35.78125 7.5 34.800781 7.5 33.816406 C 7.5 32.835938 7.546875 31.855469 7.644531 30.878906 C 7.742188 29.898438 7.882812 28.929688 8.078125 27.964844 C 8.269531 27 8.507812 26.050781 8.792969 25.109375 C 9.078125 24.167969 9.40625 23.246094 9.785156 22.335938 C 10.160156 21.429688 10.578125 20.542969 11.042969 19.675781 C 11.503906 18.808594 12.011719 17.96875 12.554688 17.152344 C 13.101562 16.332031 13.6875 15.546875 14.308594 14.785156 C 14.933594 14.027344 15.59375 13.300781 16.285156 12.605469 C 16.980469 11.910156 17.707031 11.25 18.46875 10.628906 C 19.226562 10.003906 20.015625 9.417969 20.832031 8.875 C 21.648438 8.328125 22.492188 7.824219 23.359375 7.359375 C 24.226562 6.898438 25.113281 6.476562 26.019531 6.101562 C 26.925781 5.726562 27.851562 5.394531 28.792969 5.109375 C 29.730469 4.824219 30.683594 4.585938 31.648438 4.394531 C 32.609375 4.203125 33.582031 4.058594 34.558594 3.960938 C 35.539062 3.867188 36.515625 3.816406 37.5 3.816406 C 38.484375 3.816406 39.460938 3.867188 40.441406 3.960938 C 41.417969 4.058594 42.390625 4.203125 43.351562 4.394531 C 44.316406 4.585938 45.269531 4.824219 46.207031 5.109375 C 47.148438 5.394531 48.074219 5.726562 48.980469 6.101562 C 49.886719 6.476562 50.773438 6.898438 51.640625 7.359375 C 52.507812 7.824219 53.351562 8.328125 54.167969 8.875 C 54.984375 9.417969 55.773438 10.003906 56.53125 10.628906 C 57.292969 11.25 58.019531 11.910156 58.714844 12.605469 C 59.40625 13.300781 60.066406 14.027344 60.691406 14.785156 C 61.3125 15.546875 61.898438 16.332031 62.445312 17.152344 C 62.988281 17.96875 63.496094 18.808594 63.957031 19.675781 C 64.421875 20.542969 64.839844 21.429688 65.214844 22.335938 C 65.59375 23.246094 65.921875 24.167969 66.207031 25.109375 C 66.492188 26.050781 66.730469 27 66.921875 27.964844 C 67.117188 28.929688 67.257812 29.898438 67.355469 30.878906 C 67.453125 31.855469 67.5 32.835938 67.5 33.816406 Z M 67.5 33.816406 " fill-opacity="1" fill-rule="nonzero"/></g><g clip-path="url(#246e28eeae)"><path fill="#0a0036" d="M 49.808594 33.855469 L 49.808594 32.316406 C 49.808594 31.738281 47.886719 31.234375 45.496094 31.234375 C 43.125 31.234375 41.207031 31.710938 41.207031 32.316406 L 41.207031 41.441406 C 41.207031 41.921875 41.480469 42.375 41.929688 42.578125 C 44.347656 43.609375 46.714844 43.609375 49.058594 42.578125 C 49.507812 42.375 49.808594 41.921875 49.808594 41.441406 L 49.808594 40.207031 C 50.929688 40.183594 52 39.023438 52.300781 37.410156 C 52.75 35.039062 51.351562 33.324219 49.808594 33.855469 Z M 45.496094 31.789062 C 47.363281 31.789062 48.609375 32.089844 49.109375 32.316406 C 48.636719 32.542969 47.390625 32.847656 45.496094 32.847656 C 43.601562 32.847656 42.378906 32.542969 41.90625 32.316406 C 42.378906 32.066406 43.625 31.789062 45.496094 31.789062 Z M 51.777344 37.308594 C 51.527344 38.621094 50.679688 39.652344 49.808594 39.652344 L 49.808594 34.433594 C 51.078125 33.828125 52.125 35.394531 51.777344 37.308594 Z M 51.777344 37.308594 " fill-opacity="1" fill-rule="nonzero"/></g><g clip-path="url(#0909ac7b7c)"><path fill="#004aad" d="M 47.527344 27.574219 C 47.496094 27.574219 47.464844 27.566406 47.433594 27.558594 C 47.292969 27.511719 47.226562 27.414062 47.230469 27.269531 C 47.242188 26.925781 47.164062 26.601562 47.003906 26.296875 C 46.855469 26.0625 46.683594 25.84375 46.484375 25.648438 C 46.375 25.53125 46.300781 25.457031 46.230469 25.375 C 45.765625 24.945312 45.59375 24.425781 45.710938 23.8125 C 45.84375 23.359375 46.132812 23.054688 46.582031 22.894531 C 46.621094 22.878906 46.660156 22.871094 46.699219 22.871094 C 46.75 22.871094 46.800781 22.886719 46.84375 22.910156 C 46.890625 22.933594 46.925781 22.96875 46.953125 23.011719 C 46.980469 23.058594 46.996094 23.105469 46.996094 23.15625 C 47 23.207031 46.988281 23.253906 46.964844 23.300781 C 46.847656 23.558594 46.839844 23.816406 46.9375 24.082031 C 47.066406 24.433594 47.25 24.753906 47.492188 25.039062 C 48.195312 25.949219 48.289062 26.742188 47.769531 27.449219 C 47.710938 27.53125 47.628906 27.574219 47.527344 27.574219 Z M 47.527344 27.574219 " fill-opacity="1" fill-rule="nonzero"/></g><path fill="#004aad" d="M 44.527344 27.671875 C 44.503906 27.671875 44.480469 27.667969 44.460938 27.664062 C 44.316406 27.632812 44.238281 27.542969 44.230469 27.398438 C 44.21875 27.15625 44.15625 26.925781 44.042969 26.710938 C 43.921875 26.515625 43.78125 26.339844 43.617188 26.179688 C 43.546875 26.105469 43.472656 26.023438 43.402344 25.945312 C 43.039062 25.601562 42.890625 25.183594 42.964844 24.691406 C 43.050781 24.34375 43.253906 24.097656 43.582031 23.941406 C 43.625 23.921875 43.671875 23.910156 43.722656 23.910156 C 43.824219 23.910156 43.90625 23.953125 43.96875 24.035156 C 44.027344 24.121094 44.039062 24.210938 44 24.304688 C 43.9375 24.496094 43.941406 24.6875 44.003906 24.875 C 44.109375 25.167969 44.261719 25.429688 44.464844 25.664062 C 45.003906 26.363281 45.105469 26.96875 44.785156 27.523438 C 44.730469 27.621094 44.644531 27.671875 44.527344 27.671875 Z M 44.527344 27.671875 " fill-opacity="1" fill-rule="nonzero"/><g clip-path="url(#6e655e97f8)"><path fill="#0a0036" d="M 44.617188 24.019531 C 44.757812 23.964844 44.8125 23.863281 44.785156 23.71875 C 44.761719 23.585938 44.683594 23.523438 44.546875 23.53125 C 43.878906 23.53125 42.753906 23.707031 42.691406 24.835938 C 42.71875 25.40625 42.945312 25.882812 43.375 26.265625 C 43.816406 26.78125 44.234375 27.265625 43.90625 28.050781 C 43.847656 28.167969 43.878906 28.253906 43.996094 28.308594 C 44.035156 28.355469 44.085938 28.375 44.148438 28.378906 C 44.195312 28.378906 44.238281 28.363281 44.277344 28.332031 C 44.574219 28.152344 44.808594 27.914062 44.980469 27.617188 C 45.152344 27.324219 45.246094 27.003906 45.257812 26.664062 C 45.160156 26.332031 45 26.03125 44.78125 25.761719 C 44.457031 25.289062 44.089844 24.753906 44.210938 24.382812 C 44.285156 24.195312 44.417969 24.074219 44.617188 24.019531 Z M 44.226562 25.84375 C 44.6875 26.441406 44.785156 26.933594 44.523438 27.378906 C 44.511719 27.09375 44.4375 26.824219 44.304688 26.574219 C 44.171875 26.355469 44.015625 26.15625 43.835938 25.980469 C 43.765625 25.90625 43.699219 25.835938 43.628906 25.757812 C 43.335938 25.480469 43.210938 25.144531 43.257812 24.75 C 43.320312 24.496094 43.472656 24.3125 43.71875 24.207031 C 43.632812 24.453125 43.632812 24.703125 43.714844 24.953125 C 43.828125 25.28125 44 25.578125 44.226562 25.84375 Z M 47.671875 22.988281 C 47.8125 22.933594 47.871094 22.832031 47.839844 22.683594 C 47.816406 22.554688 47.738281 22.492188 47.601562 22.5 C 46.820312 22.5 45.492188 22.707031 45.40625 24.023438 C 45.433594 24.714844 45.707031 25.292969 46.234375 25.753906 C 46.773438 26.378906 47.28125 26.96875 46.878906 27.9375 C 46.820312 28.050781 46.851562 28.140625 46.96875 28.195312 C 47.007812 28.242188 47.058594 28.265625 47.121094 28.265625 C 47.171875 28.265625 47.214844 28.25 47.253906 28.21875 C 47.722656 27.871094 48.5 27.152344 48.410156 26.242188 C 48.292969 25.835938 48.097656 25.46875 47.820312 25.144531 C 47.425781 24.574219 46.976562 23.929688 47.125 23.46875 C 47.222656 23.21875 47.40625 23.058594 47.671875 22.988281 Z M 47.253906 25.214844 C 47.878906 26.023438 47.964844 26.679688 47.527344 27.277344 C 47.539062 26.882812 47.449219 26.507812 47.261719 26.160156 C 47.105469 25.898438 46.921875 25.660156 46.699219 25.449219 C 46.617188 25.363281 46.535156 25.273438 46.453125 25.179688 C 46.074219 24.824219 45.921875 24.394531 46 23.886719 C 46.109375 23.527344 46.34375 23.289062 46.703125 23.164062 C 46.546875 23.488281 46.53125 23.820312 46.648438 24.160156 C 46.785156 24.546875 46.984375 24.898438 47.253906 25.214844 Z M 50.175781 35.957031 C 51.230469 35.898438 52.207031 35.59375 53.101562 35.046875 C 53.558594 34.796875 53.9375 34.460938 54.234375 34.042969 C 54.535156 33.625 54.726562 33.160156 54.8125 32.65625 C 54.851562 32.289062 54.914062 31.050781 54.074219 30.460938 C 53.789062 30.25 53.46875 30.140625 53.113281 30.136719 C 52.882812 30.136719 52.664062 30.1875 52.457031 30.289062 C 52.445312 29.542969 52.15625 29.097656 51.589844 28.96875 L 51.5625 28.96875 L 51.550781 28.960938 L 50.394531 28.921875 C 48.574219 28.859375 46.695312 28.796875 44.835938 28.796875 C 43.078125 28.796875 41.539062 28.855469 40.136719 28.972656 C 38.90625 29.078125 38.96875 29.8125 39.054688 30.832031 L 39.066406 30.96875 C 39.140625 32.164062 39.417969 33.304688 39.910156 34.398438 C 40.210938 35.042969 40.617188 35.613281 41.128906 36.113281 C 40.359375 36.191406 38.089844 36.523438 38.117188 37.6875 C 38.136719 38.453125 39.441406 38.769531 40.214844 38.886719 C 40.421875 38.917969 40.644531 38.945312 40.917969 38.972656 C 41.417969 40.070312 42.894531 40.21875 44.277344 40.21875 C 44.472656 40.21875 44.660156 40.21875 44.839844 40.214844 C 45 40.214844 45.15625 40.210938 45.300781 40.210938 L 45.449219 40.210938 L 45.777344 40.214844 C 46.082031 40.21875 46.394531 40.226562 46.707031 40.226562 C 47.515625 40.242188 48.320312 40.175781 49.113281 40.03125 C 49.746094 39.855469 50.21875 39.488281 50.535156 38.925781 L 50.578125 38.855469 C 51.324219 38.777344 52.871094 38.605469 53.230469 37.878906 C 53.324219 37.710938 53.324219 37.542969 53.226562 37.375 C 52.808594 36.625 50.5625 36.320312 49.8125 36.238281 C 49.910156 36.148438 50.003906 36.050781 50.101562 35.945312 C 50.125 35.953125 50.152344 35.957031 50.175781 35.957031 Z M 52.414062 30.894531 C 52.601562 30.726562 52.824219 30.636719 53.082031 30.628906 C 53.722656 30.628906 54.230469 31.3125 54.300781 31.949219 C 54.351562 32.34375 54.308594 32.722656 54.167969 33.097656 C 54.027344 33.46875 53.808594 33.785156 53.507812 34.050781 C 52.683594 34.851562 51.691406 35.3125 50.535156 35.429688 C 50.675781 35.246094 50.792969 35.074219 50.898438 34.910156 C 50.972656 34.792969 51.058594 34.636719 51.15625 34.453125 L 51.15625 34.457031 C 51.628906 34.417969 52.066406 34.273438 52.46875 34.023438 C 52.871094 33.773438 53.191406 33.445312 53.425781 33.039062 C 53.636719 32.652344 53.617188 32.273438 53.363281 31.914062 C 53.179688 31.675781 52.9375 31.5625 52.636719 31.574219 C 52.511719 31.578125 52.390625 31.59375 52.273438 31.621094 C 52.335938 31.382812 52.382812 31.140625 52.414062 30.894531 Z M 52.109375 32.183594 C 52.121094 32.183594 52.132812 32.183594 52.144531 32.179688 C 52.296875 32.109375 52.460938 32.066406 52.628906 32.050781 C 52.675781 32.050781 52.71875 32.058594 52.761719 32.070312 C 52.871094 32.117188 52.953125 32.191406 53.007812 32.296875 C 53.0625 32.402344 53.074219 32.511719 53.046875 32.625 C 52.945312 32.96875 52.746094 33.238281 52.445312 33.433594 C 52.132812 33.65625 51.789062 33.820312 51.417969 33.921875 C 51.6875 33.359375 51.917969 32.78125 52.109375 32.1875 Z M 47.992188 39.644531 C 47.335938 39.691406 46.660156 39.714844 45.929688 39.714844 L 45.863281 39.714844 C 45.710938 39.714844 45.527344 39.722656 45.324219 39.726562 C 45.0625 39.734375 44.761719 39.742188 44.449219 39.742188 C 43.453125 39.742188 42.070312 39.667969 41.527344 39.023438 C 42.355469 39.082031 43.199219 39.085938 44.015625 39.09375 C 44.34375 39.09375 44.667969 39.101562 44.992188 39.105469 C 45.386719 39.113281 45.78125 39.117188 46.171875 39.117188 C 47.402344 39.128906 48.625 39.066406 49.847656 38.933594 C 49.328125 39.421875 48.710938 39.660156 47.996094 39.648438 Z M 51.597656 37.105469 C 51.652344 37.121094 51.71875 37.140625 51.796875 37.160156 C 52.078125 37.207031 52.335938 37.308594 52.566406 37.472656 C 52.617188 37.523438 52.628906 37.582031 52.609375 37.648438 C 52.558594 37.785156 52.292969 37.996094 51.304688 38.214844 C 49.746094 38.523438 48.171875 38.660156 46.582031 38.628906 C 46.121094 38.628906 45.664062 38.625 45.207031 38.617188 C 44.253906 38.601562 43.292969 38.574219 42.351562 38.539062 C 42.179688 38.53125 41.992188 38.53125 41.789062 38.527344 C 40.890625 38.519531 39.769531 38.511719 39.109375 38.058594 C 38.84375 37.878906 38.722656 37.707031 38.75 37.546875 C 38.824219 37.148438 39.804688 36.902344 40.230469 36.792969 C 40.695312 36.667969 41.171875 36.589844 41.652344 36.5625 C 42.675781 37.324219 43.828125 37.746094 45.105469 37.835938 C 45.296875 37.851562 45.492188 37.859375 45.679688 37.859375 C 47.023438 37.875 48.226562 37.484375 49.289062 36.683594 C 49.304688 36.6875 49.316406 36.691406 49.332031 36.691406 C 50.105469 36.738281 50.863281 36.875 51.601562 37.109375 Z M 49.375 35.996094 C 48.300781 36.957031 47.039062 37.421875 45.585938 37.390625 C 44.125 37.40625 42.839844 36.949219 41.722656 36.023438 C 40.816406 35.191406 40.214844 34.179688 39.925781 32.996094 C 39.742188 32.332031 39.625 31.65625 39.570312 30.96875 C 39.566406 30.910156 39.558594 30.839844 39.546875 30.761719 C 39.503906 30.527344 39.496094 30.292969 39.527344 30.058594 C 39.679688 29.484375 40.152344 29.4375 40.585938 29.4375 C 40.65625 29.4375 40.726562 29.4375 40.796875 29.441406 C 40.867188 29.445312 40.929688 29.441406 40.992188 29.441406 L 41.070312 29.441406 C 42.953125 29.394531 44.679688 29.375 46.351562 29.375 C 48.160156 29.375 49.84375 29.398438 51.496094 29.453125 C 51.632812 29.488281 51.730469 29.570312 51.792969 29.699219 C 51.972656 30.03125 52.03125 30.851562 51.3125 32.882812 C 50.921875 34.074219 50.277344 35.109375 49.375 35.996094 Z M 41.59375 33.882812 C 41.539062 33.972656 41.460938 34.015625 41.355469 34.019531 C 41.265625 34.015625 41.195312 33.976562 41.148438 33.902344 C 40.511719 32.902344 40.144531 31.816406 40.054688 30.640625 C 40.046875 30.578125 40.066406 30.523438 40.109375 30.472656 C 40.15625 30.425781 40.21875 30.398438 40.285156 30.402344 C 40.453125 30.394531 40.542969 30.472656 40.558594 30.636719 C 40.644531 31.722656 40.988281 32.730469 41.585938 33.648438 C 41.636719 33.726562 41.640625 33.800781 41.59375 33.882812 Z M 42.011719 34.480469 C 42.054688 34.527344 42.074219 34.585938 42.070312 34.648438 C 42.074219 34.714844 42.054688 34.777344 42.003906 34.824219 C 41.957031 34.875 41.898438 34.898438 41.828125 34.894531 C 41.753906 34.898438 41.691406 34.871094 41.644531 34.816406 C 41.601562 34.769531 41.582031 34.710938 41.585938 34.648438 C 41.578125 34.582031 41.601562 34.519531 41.652344 34.472656 C 41.699219 34.421875 41.757812 34.398438 41.828125 34.402344 C 41.902344 34.398438 41.964844 34.425781 42.011719 34.480469 Z M 42.011719 34.480469 " fill-opacity="1" fill-rule="nonzero"/></g><g fill="#0a0036" fill-opacity="1"><g transform="translate(10.830685, 40.880302)"><g><path d="M 9.390625 -1.808594 L 9.390625 -2.964844 L 1.222656 -7.21875 L 9.390625 -11.472656 L 9.390625 -12.628906 L 0.226562 -7.695312 L 0.226562 -6.742188 Z M 9.390625 -1.808594 "/></g></g></g><g fill="#0a0036" fill-opacity="1"><g transform="translate(22.470394, 40.880302)"><g/></g></g><g fill="#0a0036" fill-opacity="1"><g transform="translate(52.659078, 40.880302)"><g><path d="M 2.261719 -1.808594 L 11.429688 -6.742188 L 11.429688 -7.695312 L 2.261719 -12.628906 L 2.261719 -11.472656 L 10.433594 -7.21875 L 2.261719 -2.964844 Z M 2.261719 -1.808594 "/></g></g></g><g fill="#0a0036" fill-opacity="1"><g transform="translate(27.351765, 47.724191)"><g><path d="M 1.289062 3.039062 L 2.65625 3.039062 L 13.367188 -30.90625 L 12 -30.90625 Z M 1.289062 3.039062 "/></g></g></g><g fill="#0a0036" fill-opacity="1"><g transform="translate(24.194827, 43.982083)"><g><path d="M 5.859375 -11.90625 L 5.859375 -10.375 L 3.890625 -10.375 L 3.890625 0 L 2.015625 0 L 2.015625 -10.375 L 0.421875 -10.375 L 0.421875 -11.90625 L 2.015625 -11.90625 L 2.015625 -13.953125 C 2.015625 -14.796875 2.253906 -15.457031 2.734375 -15.9375 C 3.222656 -16.414062 3.910156 -16.65625 4.796875 -16.65625 C 5.140625 -16.65625 5.492188 -16.617188 5.859375 -16.546875 L 5.859375 -14.96875 L 5.65625 -14.96875 C 5.488281 -14.988281 5.34375 -15 5.21875 -15 C 4.332031 -15 3.890625 -14.59375 3.890625 -13.78125 L 3.890625 -11.90625 Z M 5.859375 -11.90625 "/></g></g></g></svg>