<svg xmlns="http://www.w3.org/2000/svg" xmlns:xlink="http://www.w3.org/1999/xlink" width="100" zoomAndPan="magnify" viewBox="0 0 75 74.999997" height="100" preserveAspectRatio="xMidYMid meet" version="1.0"><defs><g/><clipPath id="1cb86f4f6f"><path d="M 35.25 25.742188 L 48 25.742188 L 48 38.71875 L 35.25 38.71875 Z M 35.25 25.742188 " clip-rule="nonzero"/></clipPath><clipPath id="6ee5d832bc"><path d="M 39 18.601562 L 42 18.601562 L 42 25 L 39 25 Z M 39 18.601562 " clip-rule="nonzero"/></clipPath><clipPath id="039a02e517"><path d="M 35.25 18.601562 L 43.039062 18.601562 L 43.039062 25.09375 L 35.25 25.09375 Z M 35.25 18.601562 " clip-rule="nonzero"/></clipPath></defs><g clip-path="url(#1cb86f4f6f)"><path fill="#ffffff" d="M 44.921875 28.503906 L 44.921875 26.898438 C 44.921875 26.292969 42.761719 25.769531 40.070312 25.769531 C 37.410156 25.769531 35.25 26.269531 35.25 26.898438 L 35.25 36.429688 C 35.25 36.929688 35.558594 37.402344 36.0625 37.613281 C 38.78125 38.691406 41.445312 38.691406 44.082031 37.613281 C 44.585938 37.402344 44.921875 36.929688 44.921875 36.429688 L 44.921875 35.140625 C 46.183594 35.113281 47.390625 33.902344 47.726562 32.21875 C 48.230469 29.742188 46.660156 27.953125 44.921875 28.503906 Z M 40.070312 26.347656 C 42.175781 26.347656 43.574219 26.664062 44.136719 26.898438 C 43.605469 27.136719 42.203125 27.453125 40.070312 27.453125 C 37.941406 27.453125 36.566406 27.136719 36.035156 26.898438 C 36.566406 26.636719 37.96875 26.347656 40.070312 26.347656 Z M 47.136719 32.113281 C 46.855469 33.480469 45.902344 34.558594 44.921875 34.558594 L 44.921875 29.109375 C 46.351562 28.480469 47.527344 30.113281 47.136719 32.113281 Z M 47.136719 32.113281 " fill-opacity="1" fill-rule="nonzero"/></g><g clip-path="url(#6ee5d832bc)"><path fill="#ffffff" d="M 41.09375 24.148438 C 41.058594 24.148438 41.023438 24.140625 40.988281 24.128906 C 40.839844 24.082031 40.765625 23.976562 40.769531 23.816406 C 40.78125 23.441406 40.703125 23.085938 40.527344 22.75 C 40.371094 22.492188 40.183594 22.253906 39.96875 22.039062 C 39.851562 21.910156 39.773438 21.828125 39.695312 21.738281 C 39.460938 21.519531 39.296875 21.257812 39.195312 20.953125 C 39.097656 20.648438 39.078125 20.339844 39.136719 20.023438 C 39.277344 19.53125 39.589844 19.195312 40.074219 19.019531 C 40.113281 19.003906 40.15625 18.992188 40.199219 18.992188 C 40.253906 18.992188 40.308594 19.007812 40.355469 19.035156 C 40.40625 19.0625 40.445312 19.101562 40.472656 19.148438 C 40.503906 19.195312 40.519531 19.25 40.519531 19.304688 C 40.523438 19.359375 40.511719 19.414062 40.484375 19.464844 C 40.359375 19.746094 40.351562 20.03125 40.457031 20.320312 C 40.59375 20.707031 40.792969 21.054688 41.054688 21.371094 C 41.8125 22.371094 41.910156 23.234375 41.351562 24.011719 C 41.289062 24.101562 41.203125 24.148438 41.09375 24.148438 Z M 41.09375 24.148438 " fill-opacity="1" fill-rule="nonzero"/></g><path fill="#ffffff" d="M 37.863281 24.257812 C 37.835938 24.257812 37.8125 24.253906 37.789062 24.25 C 37.632812 24.214844 37.550781 24.113281 37.542969 23.953125 C 37.53125 23.6875 37.464844 23.4375 37.339844 23.199219 C 37.210938 22.988281 37.058594 22.792969 36.882812 22.617188 C 36.808594 22.539062 36.726562 22.449219 36.652344 22.363281 C 36.261719 21.984375 36.101562 21.527344 36.179688 20.988281 C 36.269531 20.609375 36.492188 20.335938 36.847656 20.167969 C 36.894531 20.144531 36.941406 20.132812 36.996094 20.128906 C 37.105469 20.128906 37.195312 20.175781 37.257812 20.269531 C 37.324219 20.363281 37.335938 20.460938 37.296875 20.566406 C 37.230469 20.773438 37.230469 20.984375 37.296875 21.191406 C 37.410156 21.507812 37.578125 21.796875 37.796875 22.054688 C 38.375 22.820312 38.484375 23.484375 38.140625 24.09375 C 38.082031 24.203125 37.988281 24.257812 37.863281 24.257812 Z M 37.863281 24.257812 " fill-opacity="1" fill-rule="nonzero"/><g clip-path="url(#039a02e517)"><path fill="#000000" d="M 37.957031 20.25 C 38.109375 20.191406 38.171875 20.082031 38.140625 19.921875 C 38.117188 19.773438 38.03125 19.707031 37.882812 19.71875 C 37.167969 19.71875 35.953125 19.910156 35.886719 21.144531 C 35.914062 21.769531 36.160156 22.292969 36.621094 22.714844 C 37.097656 23.277344 37.546875 23.8125 37.195312 24.671875 C 37.132812 24.796875 37.164062 24.894531 37.289062 24.957031 C 37.332031 25.003906 37.386719 25.027344 37.453125 25.03125 C 37.507812 25.03125 37.554688 25.011719 37.59375 24.980469 C 37.910156 24.78125 38.164062 24.519531 38.351562 24.199219 C 38.535156 23.875 38.636719 23.527344 38.648438 23.152344 C 38.542969 22.785156 38.371094 22.457031 38.132812 22.160156 C 37.785156 21.644531 37.394531 21.058594 37.523438 20.648438 C 37.601562 20.445312 37.746094 20.3125 37.957031 20.25 Z M 37.539062 22.253906 C 38.035156 22.910156 38.140625 23.445312 37.859375 23.933594 C 37.847656 23.621094 37.769531 23.328125 37.621094 23.050781 C 37.480469 22.8125 37.3125 22.597656 37.117188 22.402344 C 37.042969 22.320312 36.96875 22.242188 36.894531 22.15625 C 36.582031 21.855469 36.445312 21.488281 36.492188 21.054688 C 36.5625 20.773438 36.730469 20.574219 36.992188 20.457031 C 36.898438 20.730469 36.898438 21.003906 36.988281 21.277344 C 37.109375 21.636719 37.292969 21.960938 37.539062 22.253906 Z M 41.246094 19.121094 C 41.398438 19.058594 41.460938 18.949219 41.429688 18.789062 C 41.402344 18.644531 41.320312 18.578125 41.171875 18.585938 C 40.332031 18.585938 38.902344 18.8125 38.808594 20.257812 C 38.835938 21.015625 39.132812 21.648438 39.699219 22.15625 C 40.28125 22.839844 40.828125 23.484375 40.394531 24.546875 C 40.332031 24.675781 40.363281 24.769531 40.492188 24.832031 C 40.535156 24.878906 40.589844 24.90625 40.652344 24.90625 C 40.707031 24.90625 40.753906 24.886719 40.796875 24.855469 C 41.304688 24.472656 42.140625 23.683594 42.042969 22.691406 C 41.914062 22.242188 41.703125 21.839844 41.40625 21.484375 C 40.980469 20.859375 40.5 20.15625 40.65625 19.648438 C 40.765625 19.375 40.960938 19.199219 41.246094 19.121094 Z M 40.796875 21.5625 C 41.46875 22.449219 41.5625 23.167969 41.09375 23.824219 C 41.101562 23.390625 41.007812 22.980469 40.804688 22.597656 C 40.640625 22.3125 40.4375 22.050781 40.203125 21.820312 C 40.113281 21.722656 40.023438 21.625 39.9375 21.523438 C 39.527344 21.136719 39.363281 20.664062 39.449219 20.105469 C 39.566406 19.714844 39.816406 19.449219 40.203125 19.3125 C 40.039062 19.671875 40.019531 20.035156 40.148438 20.40625 C 40.292969 20.832031 40.507812 21.21875 40.796875 21.5625 Z M 43.945312 33.339844 C 45.078125 33.273438 46.125 32.941406 47.089844 32.339844 C 47.582031 32.066406 47.988281 31.703125 48.3125 31.242188 C 48.636719 30.78125 48.839844 30.273438 48.933594 29.71875 C 48.972656 29.320312 49.042969 27.960938 48.136719 27.316406 C 47.832031 27.082031 47.484375 26.964844 47.101562 26.957031 C 46.855469 26.960938 46.617188 27.015625 46.394531 27.125 C 46.382812 26.308594 46.074219 25.820312 45.464844 25.675781 L 45.4375 25.675781 L 45.421875 25.671875 L 44.175781 25.628906 C 42.21875 25.558594 40.195312 25.488281 38.195312 25.488281 C 36.300781 25.488281 34.648438 25.554688 33.136719 25.683594 C 31.8125 25.796875 31.878906 26.601562 31.972656 27.71875 L 31.988281 27.871094 C 32.0625 29.179688 32.363281 30.433594 32.890625 31.632812 C 33.214844 32.335938 33.652344 32.960938 34.203125 33.511719 C 33.375 33.597656 30.933594 33.960938 30.964844 35.238281 C 30.984375 36.078125 32.386719 36.421875 33.222656 36.550781 C 33.441406 36.585938 33.683594 36.617188 33.980469 36.648438 C 34.515625 37.851562 36.105469 38.015625 37.59375 38.015625 C 37.800781 38.015625 38.003906 38.015625 38.199219 38.007812 C 38.375 38.007812 38.539062 38.003906 38.695312 38.003906 L 38.855469 38.003906 L 39.207031 38.007812 C 39.535156 38.015625 39.871094 38.019531 40.210938 38.019531 C 41.082031 38.039062 41.945312 37.96875 42.800781 37.808594 C 43.476562 37.617188 43.988281 37.210938 44.328125 36.59375 L 44.375 36.519531 C 45.175781 36.433594 46.84375 36.246094 47.230469 35.449219 C 47.332031 35.261719 47.332031 35.078125 47.226562 34.894531 C 46.773438 34.074219 44.359375 33.738281 43.550781 33.652344 C 43.65625 33.550781 43.757812 33.445312 43.863281 33.328125 C 43.886719 33.335938 43.914062 33.339844 43.945312 33.339844 Z M 46.351562 27.789062 C 46.554688 27.605469 46.792969 27.507812 47.070312 27.5 C 47.757812 27.5 48.304688 28.246094 48.378906 28.945312 C 48.4375 29.378906 48.390625 29.796875 48.238281 30.203125 C 48.089844 30.609375 47.851562 30.960938 47.53125 31.25 C 46.640625 32.128906 45.574219 32.632812 44.328125 32.765625 C 44.480469 32.5625 44.609375 32.375 44.71875 32.191406 C 44.796875 32.0625 44.894531 31.894531 44.996094 31.691406 L 44.996094 31.695312 C 45.507812 31.652344 45.980469 31.496094 46.410156 31.21875 C 46.84375 30.945312 47.1875 30.585938 47.441406 30.140625 C 47.667969 29.714844 47.644531 29.304688 47.371094 28.90625 C 47.175781 28.644531 46.914062 28.523438 46.589844 28.535156 C 46.457031 28.539062 46.328125 28.554688 46.199219 28.585938 C 46.269531 28.324219 46.320312 28.058594 46.351562 27.789062 Z M 46.023438 29.203125 C 46.035156 29.203125 46.046875 29.203125 46.058594 29.199219 C 46.226562 29.121094 46.402344 29.074219 46.582031 29.058594 C 46.632812 29.058594 46.679688 29.066406 46.726562 29.078125 C 46.84375 29.128906 46.933594 29.210938 46.992188 29.328125 C 47.050781 29.441406 47.0625 29.5625 47.03125 29.6875 C 46.921875 30.0625 46.707031 30.359375 46.382812 30.574219 C 46.046875 30.820312 45.679688 30.996094 45.28125 31.109375 C 45.566406 30.492188 45.816406 29.859375 46.023438 29.210938 Z M 41.59375 37.382812 C 40.886719 37.4375 40.15625 37.460938 39.371094 37.460938 L 39.300781 37.460938 C 39.136719 37.460938 38.941406 37.46875 38.71875 37.472656 C 38.4375 37.480469 38.117188 37.492188 37.78125 37.492188 C 36.703125 37.492188 35.21875 37.40625 34.632812 36.703125 C 35.523438 36.765625 36.433594 36.773438 37.3125 36.78125 C 37.664062 36.78125 38.015625 36.789062 38.363281 36.792969 C 38.785156 36.800781 39.210938 36.804688 39.632812 36.804688 C 40.957031 36.816406 42.273438 36.75 43.589844 36.605469 C 43.03125 37.140625 42.367188 37.402344 41.597656 37.390625 Z M 45.472656 34.601562 C 45.53125 34.617188 45.601562 34.636719 45.6875 34.660156 C 45.988281 34.710938 46.265625 34.824219 46.515625 35.003906 C 46.570312 35.058594 46.582031 35.125 46.558594 35.195312 C 46.507812 35.347656 46.222656 35.578125 45.15625 35.816406 C 43.480469 36.15625 41.785156 36.304688 40.074219 36.269531 C 39.578125 36.269531 39.085938 36.265625 38.597656 36.257812 C 37.570312 36.238281 36.535156 36.210938 35.519531 36.171875 C 35.335938 36.164062 35.132812 36.164062 34.917969 36.160156 C 33.949219 36.152344 32.742188 36.140625 32.03125 35.644531 C 31.746094 35.445312 31.613281 35.261719 31.644531 35.082031 C 31.722656 34.644531 32.78125 34.375 33.238281 34.257812 C 33.738281 34.121094 34.25 34.035156 34.769531 34.003906 C 35.871094 34.835938 37.109375 35.300781 38.484375 35.398438 C 38.691406 35.417969 38.902344 35.425781 39.105469 35.425781 C 40.546875 35.445312 41.84375 35.015625 42.988281 34.136719 C 43.003906 34.140625 43.019531 34.144531 43.035156 34.148438 C 43.867188 34.195312 44.683594 34.347656 45.476562 34.605469 Z M 43.082031 33.382812 C 42.523438 33.890625 41.894531 34.273438 41.1875 34.539062 C 40.484375 34.804688 39.753906 34.929688 39 34.910156 C 37.429688 34.929688 36.042969 34.429688 34.84375 33.414062 C 33.867188 32.5 33.222656 31.394531 32.910156 30.09375 C 32.710938 29.363281 32.585938 28.625 32.527344 27.871094 C 32.523438 27.808594 32.515625 27.730469 32.503906 27.644531 C 32.457031 27.386719 32.449219 27.132812 32.480469 26.871094 C 32.644531 26.246094 33.15625 26.191406 33.617188 26.191406 C 33.695312 26.191406 33.773438 26.191406 33.847656 26.195312 C 33.921875 26.199219 33.988281 26.195312 34.058594 26.195312 L 34.140625 26.195312 C 36.167969 26.148438 38.027344 26.121094 39.828125 26.121094 C 41.773438 26.121094 43.585938 26.152344 45.363281 26.207031 C 45.511719 26.25 45.617188 26.339844 45.683594 26.476562 C 45.875 26.84375 45.941406 27.746094 45.164062 29.96875 C 44.746094 31.273438 44.050781 32.414062 43.082031 33.382812 Z M 34.707031 31.0625 C 34.648438 31.164062 34.5625 31.210938 34.449219 31.214844 C 34.351562 31.214844 34.277344 31.171875 34.226562 31.085938 C 33.539062 29.992188 33.144531 28.800781 33.046875 27.511719 C 33.039062 27.441406 33.058594 27.378906 33.105469 27.328125 C 33.160156 27.273438 33.222656 27.246094 33.296875 27.25 C 33.476562 27.242188 33.574219 27.328125 33.589844 27.507812 C 33.683594 28.699219 34.054688 29.800781 34.695312 30.8125 C 34.75 30.894531 34.753906 30.976562 34.707031 31.0625 Z M 35.15625 31.71875 C 35.199219 31.773438 35.222656 31.835938 35.21875 31.90625 C 35.222656 31.980469 35.199219 32.046875 35.148438 32.097656 C 35.09375 32.152344 35.03125 32.179688 34.957031 32.175781 C 34.878906 32.179688 34.8125 32.152344 34.757812 32.089844 C 34.714844 32.039062 34.695312 31.976562 34.695312 31.90625 C 34.691406 31.832031 34.714844 31.765625 34.765625 31.710938 C 34.820312 31.660156 34.882812 31.632812 34.957031 31.632812 C 35.039062 31.632812 35.105469 31.660156 35.15625 31.71875 Z M 35.15625 31.71875 " fill-opacity="1" fill-rule="nonzero"/></g><g fill="#ffffff" fill-opacity="1"><g transform="translate(2.05155, 43.379256)"><g><path d="M 12.21875 -15.015625 L 12.21875 -13.0625 L 3.453125 -8.703125 L 12.21875 -4.875 L 12.21875 -2.890625 L 1.078125 -8 L 1.078125 -9.234375 Z M 12.21875 -15.015625 "/></g></g></g><g fill="#ffffff" fill-opacity="1"><g transform="translate(15.358347, 43.379256)"><g/></g></g><g fill="#ffffff" fill-opacity="1"><g transform="translate(59.813542, 43.379256)"><g><path d="M 1.078125 -15.015625 L 12.21875 -9.234375 L 12.21875 -8 L 1.078125 -2.890625 L 1.078125 -4.875 L 9.828125 -8.703125 L 1.078125 -13.0625 Z M 1.078125 -15.015625 "/></g></g></g><g fill="#ffffff" fill-opacity="1"><g transform="translate(45.165894, 47.882819)"><g><path d="M 14.953125 -29.59375 L 3.953125 0 L 0.390625 0 L 11.4375 -29.59375 Z M 14.953125 -29.59375 "/></g></g></g><g fill="#ffffff" fill-opacity="1"><g transform="translate(16.885888, 41.693171)"><g><path d="M 6.640625 -13.46875 L 6.640625 -11.75 L 4.40625 -11.75 L 4.40625 0 L 2.28125 0 L 2.28125 -11.75 L 0.46875 -11.75 L 0.46875 -13.46875 L 2.28125 -13.46875 L 2.28125 -15.78125 C 2.28125 -16.738281 2.554688 -17.488281 3.109375 -18.03125 C 3.660156 -18.570312 4.429688 -18.84375 5.421875 -18.84375 C 5.804688 -18.84375 6.210938 -18.800781 6.640625 -18.71875 L 6.640625 -16.9375 L 6.390625 -16.9375 C 6.203125 -16.957031 6.039062 -16.96875 5.90625 -16.96875 C 4.90625 -16.96875 4.40625 -16.507812 4.40625 -15.59375 L 4.40625 -13.46875 Z M 6.640625 -13.46875 "/></g></g></g><g fill="#ffffff" fill-opacity="1"><g transform="translate(25.75005, 38.109707)"><g><path d="M 3.5625 -0.21875 L 3.5625 -3.046875 L 0.734375 -3.046875 L 0.734375 -4.15625 L 3.5625 -4.15625 L 3.5625 -7.015625 L 4.671875 -7.015625 L 4.671875 -4.15625 L 7.5 -4.15625 L 7.5 -3.046875 L 4.671875 -3.046875 L 4.671875 -0.21875 Z M 3.5625 -0.21875 "/></g></g></g></svg>