<svg xmlns="http://www.w3.org/2000/svg" xmlns:xlink="http://www.w3.org/1999/xlink" width="600" zoomAndPan="magnify" viewBox="0 0 450 449.999984" height="600" preserveAspectRatio="xMidYMid meet" version="1.0"><defs><g/><clipPath id="f328b8249d"><path d="M 87.433594 223 L 186 223 L 186 233 L 87.433594 233 Z M 87.433594 223 " clip-rule="nonzero"/></clipPath><clipPath id="1503d90541"><path d="M 87.433594 227 L 137 227 L 137 240.628906 L 87.433594 240.628906 Z M 87.433594 227 " clip-rule="nonzero"/></clipPath><clipPath id="26dc7362be"><path d="M 136 227 L 186 227 L 186 240.628906 L 136 240.628906 Z M 136 227 " clip-rule="nonzero"/></clipPath><clipPath id="3cc0e15f61"><path d="M 136 120.628906 L 151 120.628906 L 151 168 L 136 168 Z M 136 120.628906 " clip-rule="nonzero"/></clipPath><clipPath id="d91ef1f141"><path d="M 136 120.628906 L 151 120.628906 L 151 168 L 136 168 Z M 136 120.628906 " clip-rule="nonzero"/></clipPath></defs><path fill="#e9e8e7" d="M 170.855469 187.214844 C 170.855469 187.214844 182.90625 182.273438 186.867188 192.046875 C 186.867188 192.046875 189.402344 200.15625 186.316406 205.117188 C 183.253906 210.054688 176.300781 217.746094 163.636719 218.84375 L 167.382812 211.484375 C 167.382812 211.484375 176.960938 208.519531 180.042969 203.6875 C 180.042969 203.6875 183.675781 198.199219 179.824219 194.242188 C 178.257812 192.636719 175.976562 190.800781 170.855469 194.71875 L 170.855469 187.214844 " fill-opacity="1" fill-rule="nonzero"/><path fill="#cdccca" d="M 170.4375 176.875 L 102.214844 176.875 C 100.949219 200.960938 102.550781 209.910156 107.269531 218.398438 C 116.109375 234.308594 136.328125 233.347656 136.328125 233.347656 C 136.328125 233.347656 156.542969 234.308594 165.386719 218.398438 C 170.105469 209.910156 171.703125 200.960938 170.4375 176.875 " fill-opacity="1" fill-rule="nonzero"/><g clip-path="url(#f328b8249d)"><path fill="#cdccca" d="M 87.472656 227.253906 C 87.472656 227.253906 135.671875 218.316406 185.824219 227.253906 C 185.824219 227.253906 128.820312 239.226562 87.472656 227.253906 " fill-opacity="1" fill-rule="nonzero"/></g><path fill="#eeedf4" d="M 153.179688 176.875 L 102.214844 176.875 C 100.949219 200.960938 102.640625 209.863281 107.269531 218.398438 C 117.511719 237.292969 134.40625 230.992188 138.183594 229.390625 C 149.917969 224.40625 161.074219 209.691406 153.179688 176.875 " fill-opacity="1" fill-rule="nonzero"/><g clip-path="url(#1503d90541)"><path fill="#e9e8e7" d="M 87.472656 227.253906 C 87.472656 227.253906 114.773438 231.863281 136.328125 230.78125 L 136.328125 240.632812 L 119.417969 240.632812 L 119.285156 239.449219 C 119.285156 239.449219 95.492188 239.710938 87.472656 227.253906 " fill-opacity="1" fill-rule="nonzero"/></g><g clip-path="url(#26dc7362be)"><path fill="#e9e8e7" d="M 185.824219 227.253906 C 185.824219 227.253906 157.878906 231.863281 136.328125 230.78125 L 136.328125 240.632812 L 153.234375 240.632812 L 153.394531 239.242188 C 153.394531 239.242188 175.742188 238.96875 185.824219 227.253906 " fill-opacity="1" fill-rule="nonzero"/></g><path fill="#e9e8e7" d="M 170.855469 176.875 C 170.855469 179.785156 155.488281 182.148438 136.535156 182.148438 C 117.578125 182.148438 102.214844 179.785156 102.214844 176.875 C 102.214844 173.964844 117.578125 171.605469 136.535156 171.605469 C 155.488281 171.605469 170.855469 173.964844 170.855469 176.875 " fill-opacity="1" fill-rule="nonzero"/><path fill="#cdccca" d="M 124.617188 171.929688 C 127.269531 171.820312 114.0625 176.03125 116.847656 179.144531 C 118.074219 180.515625 109.550781 180.128906 109.550781 180.128906 C 109.550781 180.128906 103.800781 179.859375 102.214844 176.875 C 102.214844 176.875 102.214844 172.863281 124.617188 171.929688 " fill-opacity="1" fill-rule="nonzero"/><path fill="#593117" d="M 109.550781 180.128906 C 109.550781 180.128906 135.859375 175.414062 162.867188 180.257812 C 162.867188 180.257812 137.847656 185.273438 109.550781 180.128906 " fill-opacity="1" fill-rule="nonzero"/><path fill="#cdccca" d="M 129.3125 166.390625 C 129.3125 166.390625 138.511719 155.640625 133.699219 150.21875 C 130.996094 147.171875 126.324219 145.808594 131.851562 134.046875 C 131.851562 134.046875 131.273438 141.941406 135.910156 147.277344 C 138.992188 150.824219 142.976562 157.203125 129.3125 166.390625 " fill-opacity="1" fill-rule="nonzero"/><g clip-path="url(#3cc0e15f61)"><path fill="#cdccca" d="M 136.757812 167.128906 C 136.757812 167.128906 149.980469 151.671875 143.066406 143.878906 C 139.179688 139.496094 132.464844 137.539062 140.414062 120.628906 C 140.414062 120.628906 139.578125 131.980469 146.242188 139.652344 C 150.671875 144.746094 156.402344 153.917969 136.757812 167.128906 " fill-opacity="1" fill-rule="nonzero"/></g><path fill="#eeedf4" d="M 128.820312 166.390625 C 128.820312 166.390625 138.019531 155.640625 133.207031 150.21875 C 130.503906 147.171875 125.832031 145.808594 131.363281 134.046875 C 131.363281 134.046875 130.78125 141.941406 135.417969 147.277344 C 138.496094 150.824219 142.484375 157.203125 128.820312 166.390625 " fill-opacity="1" fill-rule="nonzero"/><g clip-path="url(#d91ef1f141)"><path fill="#eeedf4" d="M 136.265625 167.128906 C 136.265625 167.128906 149.488281 151.671875 142.574219 143.878906 C 138.6875 139.496094 131.972656 137.539062 139.921875 120.628906 C 139.921875 120.628906 139.089844 131.980469 145.753906 139.652344 C 150.179688 144.746094 155.910156 153.917969 136.265625 167.128906 " fill-opacity="1" fill-rule="nonzero"/></g><g fill="#ffffff" fill-opacity="1"><g transform="translate(11.931826, 240.679728)"><g><path d="M 61.203125 -75.296875 L 61.203125 -60.1875 L 24.890625 -42.28125 L 61.203125 -26.40625 L 61.203125 -11.296875 L 5.203125 -37.203125 L 5.203125 -46.09375 Z M 61.203125 -75.296875 "/></g></g></g><g fill="#ffffff" fill-opacity="1"><g transform="translate(375.419775, 240.681017)"><g><path d="M 5.203125 -75.3125 L 61.21875 -46.09375 L 61.21875 -37.21875 L 5.203125 -11.296875 L 5.203125 -26.421875 L 41.53125 -42.296875 L 5.203125 -60.203125 Z M 5.203125 -75.3125 "/></g></g></g><g fill="#ffffff" fill-opacity="1"><g transform="translate(210.212438, 214.052621)"><g><path d="M 24.390625 -29.359375 L 24.390625 -23.046875 L 10.375 -23.046875 L 10.375 -17.296875 L 22.515625 -17.296875 L 22.515625 -11.3125 L 10.375 -11.3125 L 10.375 0 L 2.703125 0 L 2.703125 -29.359375 Z M 24.390625 -29.359375 "/></g></g></g><g fill="#ffffff" fill-opacity="1"><g transform="translate(235.340645, 214.052621)"><g/></g></g><g fill="#ffffff" fill-opacity="1"><g transform="translate(242.883213, 214.052621)"><g><path d="M 11.640625 -13.125 L 11.640625 -7.828125 L 1.515625 -7.828125 L 1.515625 -13.125 Z M 11.640625 -13.125 "/></g></g></g><g fill="#ffffff" fill-opacity="1"><g transform="translate(256.041697, 214.052621)"><g/></g></g><g fill="#ffffff" fill-opacity="1"><g transform="translate(263.584265, 214.052621)"><g><path d="M 23.078125 -8.359375 C 22.671875 -5.328125 21.414062 -3.03125 19.3125 -1.46875 C 17.476562 -0.101562 15.179688 0.578125 12.421875 0.578125 C 8.816406 0.578125 5.972656 -0.570312 3.890625 -2.875 C 2.085938 -4.863281 1.1875 -7.390625 1.1875 -10.453125 C 1.1875 -14.140625 2.347656 -17.023438 4.671875 -19.109375 C 6.722656 -20.941406 9.320312 -21.859375 12.46875 -21.859375 C 15.664062 -21.859375 18.21875 -21.007812 20.125 -19.3125 C 21.820312 -17.8125 22.753906 -15.898438 22.921875 -13.578125 L 16.15625 -13.578125 C 15.800781 -15.703125 14.613281 -16.765625 12.59375 -16.765625 C 9.71875 -16.765625 8.28125 -14.675781 8.28125 -10.5 C 8.28125 -6.59375 9.675781 -4.640625 12.46875 -4.640625 C 14.675781 -4.640625 15.972656 -5.878906 16.359375 -8.359375 Z M 23.078125 -8.359375 "/></g></g></g><g fill="#ffffff" fill-opacity="1"><g transform="translate(287.687682, 214.052621)"><g><path d="M 12.46875 0.578125 C 8.882812 0.578125 6.039062 -0.597656 3.9375 -2.953125 C 2.101562 -5.003906 1.1875 -7.570312 1.1875 -10.65625 C 1.1875 -14.207031 2.363281 -17.035156 4.71875 -19.140625 C 6.769531 -20.953125 9.335938 -21.859375 12.421875 -21.859375 C 16.023438 -21.859375 18.878906 -20.695312 20.984375 -18.375 C 22.796875 -16.375 23.703125 -13.816406 23.703125 -10.703125 C 23.703125 -7.117188 22.523438 -4.273438 20.171875 -2.171875 C 18.117188 -0.335938 15.550781 0.578125 12.46875 0.578125 Z M 12.375 -16.765625 C 11.0625 -16.765625 10.050781 -16.234375 9.34375 -15.171875 C 8.632812 -14.109375 8.28125 -12.601562 8.28125 -10.65625 C 8.28125 -6.5625 9.675781 -4.515625 12.46875 -4.515625 C 15.25 -4.515625 16.640625 -6.578125 16.640625 -10.703125 C 16.640625 -14.742188 15.21875 -16.765625 12.375 -16.765625 Z M 12.375 -16.765625 "/></g></g></g><g fill="#ffffff" fill-opacity="1"><g transform="translate(312.569956, 214.052621)"><g><path d="M 23.53125 -29.359375 L 23.53125 0 L 16.515625 0 L 16.515625 -2.5 C 15.285156 -0.445312 13.359375 0.578125 10.734375 0.578125 C 7.679688 0.578125 5.28125 -0.582031 3.53125 -2.90625 C 2.019531 -4.957031 1.265625 -7.582031 1.265625 -10.78125 C 1.265625 -14.363281 2.207031 -17.164062 4.09375 -19.1875 C 5.738281 -20.988281 7.832031 -21.890625 10.375 -21.890625 C 13.019531 -21.890625 15.066406 -20.863281 16.515625 -18.8125 L 16.515625 -29.359375 Z M 12.546875 -16.4375 C 11.203125 -16.4375 10.164062 -15.9375 9.4375 -14.9375 C 8.71875 -13.945312 8.359375 -12.546875 8.359375 -10.734375 C 8.359375 -6.992188 9.753906 -5.125 12.546875 -5.125 C 13.890625 -5.125 14.9375 -5.625 15.6875 -6.625 C 16.4375 -7.625 16.8125 -8.992188 16.8125 -10.734375 C 16.8125 -12.515625 16.425781 -13.910156 15.65625 -14.921875 C 14.894531 -15.929688 13.859375 -16.4375 12.546875 -16.4375 Z M 12.546875 -16.4375 "/></g></g></g><g fill="#ffffff" fill-opacity="1"><g transform="translate(338.477003, 214.052621)"><g><path d="M 23.453125 -6.515625 C 23.117188 -5.265625 22.488281 -4.101562 21.5625 -3.03125 C 19.457031 -0.625 16.546875 0.578125 12.828125 0.578125 C 9.472656 0.578125 6.753906 -0.351562 4.671875 -2.21875 C 2.347656 -4.289062 1.1875 -7.035156 1.1875 -10.453125 C 1.1875 -14.035156 2.390625 -16.90625 4.796875 -19.0625 C 6.867188 -20.925781 9.453125 -21.859375 12.546875 -21.859375 C 16.285156 -21.859375 19.171875 -20.625 21.203125 -18.15625 C 22.972656 -16 23.859375 -13.171875 23.859375 -9.671875 C 23.859375 -9.429688 23.859375 -9.210938 23.859375 -9.015625 L 8.03125 -9.015625 C 8.09375 -7.484375 8.546875 -6.285156 9.390625 -5.421875 C 10.234375 -4.566406 11.378906 -4.140625 12.828125 -4.140625 C 14.609375 -4.140625 15.960938 -4.929688 16.890625 -6.515625 Z M 17.015625 -13 C 16.660156 -15.757812 15.195312 -17.140625 12.625 -17.140625 C 10.03125 -17.140625 8.53125 -15.757812 8.125 -13 Z M 17.015625 -13 "/></g></g></g></svg>