<svg xmlns="http://www.w3.org/2000/svg" xmlns:xlink="http://www.w3.org/1999/xlink" width="150" zoomAndPan="magnify" viewBox="0 0 450 449.999984" height="150" preserveAspectRatio="xMidYMid meet" version="1.0"><defs><g/><clipPath id="f2a8adc4d5"><path d="M 138.488281 237 L 305 237 L 305 254 L 138.488281 254 Z M 138.488281 237 " clip-rule="nonzero"/></clipPath><clipPath id="d44a6758b3"><path d="M 138.488281 244 L 222 244 L 222 266.96875 L 138.488281 266.96875 Z M 138.488281 244 " clip-rule="nonzero"/></clipPath><clipPath id="fa6d8cfca8"><path d="M 221 244 L 305 244 L 305 266.96875 L 221 266.96875 Z M 221 244 " clip-rule="nonzero"/></clipPath><clipPath id="1d6095a1e0"><path d="M 221 63.71875 L 246 63.71875 L 246 143 L 221 143 Z M 221 63.71875 " clip-rule="nonzero"/></clipPath><clipPath id="f1e90397ed"><path d="M 220 63.71875 L 245 63.71875 L 245 143 L 220 143 Z M 220 63.71875 " clip-rule="nonzero"/></clipPath></defs><path fill="#e9e8e7" d="M 279.570312 176.5 C 279.570312 176.5 299.953125 168.132812 306.652344 184.6875 C 306.652344 184.6875 310.9375 198.421875 305.722656 206.824219 C 300.539062 215.183594 288.777344 228.210938 267.363281 230.070312 L 273.695312 217.605469 C 273.695312 217.605469 289.898438 212.589844 295.109375 204.402344 C 295.109375 204.402344 301.253906 195.101562 294.738281 188.40625 C 292.089844 185.6875 288.234375 182.578125 279.570312 189.210938 L 279.570312 176.5 " fill-opacity="1" fill-rule="nonzero"/><path fill="#cdccca" d="M 278.867188 158.988281 L 163.480469 158.988281 C 161.339844 199.78125 164.046875 214.941406 172.027344 229.320312 C 186.980469 256.265625 221.171875 254.636719 221.171875 254.636719 C 221.171875 254.636719 255.363281 256.265625 270.320312 229.320312 C 278.304688 214.941406 281.003906 199.78125 278.867188 158.988281 " fill-opacity="1" fill-rule="nonzero"/><g clip-path="url(#f2a8adc4d5)"><path fill="#cdccca" d="M 138.546875 244.316406 C 138.546875 244.316406 220.070312 229.175781 304.886719 244.316406 C 304.886719 244.316406 208.476562 264.597656 138.546875 244.316406 " fill-opacity="1" fill-rule="nonzero"/></g><path fill="#eeedf4" d="M 249.679688 158.984375 L 163.480469 158.984375 C 161.339844 199.78125 164.199219 214.859375 172.027344 229.320312 C 189.351562 261.320312 217.925781 250.648438 224.3125 247.933594 C 244.160156 239.496094 263.027344 214.570312 249.679688 158.984375 " fill-opacity="1" fill-rule="nonzero"/><g clip-path="url(#d44a6758b3)"><path fill="#e9e8e7" d="M 138.546875 244.316406 C 138.546875 244.316406 184.722656 252.125 221.175781 250.289062 L 221.175781 266.980469 L 192.578125 266.980469 L 192.347656 264.972656 C 192.347656 264.972656 152.109375 265.414062 138.546875 244.316406 " fill-opacity="1" fill-rule="nonzero"/></g><g clip-path="url(#fa6d8cfca8)"><path fill="#e9e8e7" d="M 304.886719 244.316406 C 304.886719 244.316406 257.625 252.125 221.175781 250.289062 L 221.175781 266.980469 L 249.769531 266.980469 L 250.039062 264.625 C 250.039062 264.625 287.835938 264.15625 304.886719 244.316406 " fill-opacity="1" fill-rule="nonzero"/></g><path fill="#e9e8e7" d="M 279.570312 158.988281 C 279.570312 163.917969 253.582031 167.917969 221.523438 167.917969 C 189.46875 167.917969 163.480469 163.917969 163.480469 158.988281 C 163.480469 154.058594 189.46875 150.058594 221.523438 150.058594 C 253.582031 150.058594 279.570312 154.058594 279.570312 158.988281 " fill-opacity="1" fill-rule="nonzero"/><path fill="#cdccca" d="M 201.371094 150.613281 C 205.859375 150.425781 183.515625 157.558594 188.230469 162.832031 C 190.300781 165.152344 175.890625 164.5 175.890625 164.5 C 175.890625 164.5 166.160156 164.042969 163.480469 158.984375 C 163.480469 158.984375 163.480469 152.191406 201.371094 150.613281 " fill-opacity="1" fill-rule="nonzero"/><path fill="#593117" d="M 175.890625 164.5 C 175.890625 164.5 220.378906 156.515625 266.0625 164.714844 C 266.0625 164.714844 223.75 173.210938 175.890625 164.5 " fill-opacity="1" fill-rule="nonzero"/><path fill="#cdccca" d="M 209.308594 141.230469 C 209.308594 141.230469 224.867188 123.019531 216.730469 113.839844 C 212.15625 108.675781 204.253906 106.367188 213.605469 86.445312 C 213.605469 86.445312 212.628906 99.820312 220.46875 108.859375 C 225.679688 114.863281 232.421875 125.667969 209.308594 141.230469 " fill-opacity="1" fill-rule="nonzero"/><g clip-path="url(#1d6095a1e0)"><path fill="#cdccca" d="M 221.902344 142.476562 C 221.902344 142.476562 244.265625 116.296875 232.570312 103.097656 C 225.996094 95.679688 214.640625 92.359375 228.085938 63.722656 C 228.085938 63.722656 226.675781 82.949219 237.945312 95.9375 C 245.433594 104.570312 255.125 120.105469 221.902344 142.476562 " fill-opacity="1" fill-rule="nonzero"/></g><path fill="#eeedf4" d="M 208.476562 141.230469 C 208.476562 141.230469 224.035156 123.019531 215.898438 113.839844 C 211.324219 108.675781 203.425781 106.367188 212.777344 86.445312 C 212.777344 86.445312 211.796875 99.820312 219.636719 108.859375 C 224.84375 114.863281 231.589844 125.667969 208.476562 141.230469 " fill-opacity="1" fill-rule="nonzero"/><g clip-path="url(#f1e90397ed)"><path fill="#eeedf4" d="M 221.070312 142.476562 C 221.070312 142.476562 243.433594 116.296875 231.738281 103.097656 C 225.167969 95.679688 213.808594 92.359375 227.253906 63.722656 C 227.253906 63.722656 225.84375 82.949219 237.113281 95.9375 C 244.601562 104.570312 254.292969 120.105469 221.070312 142.476562 " fill-opacity="1" fill-rule="nonzero"/></g><g fill="#ffffff" fill-opacity="1"><g transform="translate(8.616503, 267.362415)"><g><path d="M 95.953125 -118.046875 L 95.953125 -94.359375 L 39.015625 -66.296875 L 95.953125 -41.40625 L 95.953125 -17.71875 L 8.15625 -58.328125 L 8.15625 -72.265625 Z M 95.953125 -118.046875 "/></g></g></g><g fill="#ffffff" fill-opacity="1"><g transform="translate(337.047402, 267.362415)"><g><path d="M 8.15625 -118.046875 L 95.953125 -72.265625 L 95.953125 -58.328125 L 8.15625 -17.71875 L 8.15625 -41.40625 L 65.09375 -66.296875 L 8.15625 -94.359375 Z M 8.15625 -118.046875 "/></g></g></g><g fill="#ffffff" fill-opacity="1"><g transform="translate(111.217664, 303.750004)"><g><path d="M 45.125 -31.328125 L 42.6875 -22.5625 L 23.234375 -27.96875 L 21.03125 -20 L 37.859375 -15.328125 L 35.5625 -7.03125 L 18.734375 -11.703125 L 14.375 3.984375 L 3.75 1.046875 L 15.046875 -39.671875 Z M 45.125 -31.328125 "/></g></g></g><g fill="#ffffff" fill-opacity="1"><g transform="translate(147.523248, 313.322534)"><g/></g></g><g fill="#ffffff" fill-opacity="1"><g transform="translate(159.009441, 315.742507)"><g><path d="M 19.515625 -16 L 18.3125 -8.484375 L 3.921875 -10.78125 L 5.125 -18.296875 Z M 19.515625 -16 "/></g></g></g><g fill="#ffffff" fill-opacity="1"><g transform="translate(178.595776, 318.753056)"><g/></g></g><g fill="#ffffff" fill-opacity="1"><g transform="translate(190.695694, 320.496913)"><g><path d="M 33.75 -10.4375 C 32.957031 -6.113281 30.988281 -2.90625 27.84375 -0.8125 C 25.125 1.03125 21.78125 1.859375 17.8125 1.671875 C 12.625 1.429688 8.617188 -0.410156 5.796875 -3.859375 C 3.347656 -6.847656 2.226562 -10.546875 2.4375 -14.953125 C 2.6875 -20.253906 4.546875 -24.320312 8.015625 -27.15625 C 11.085938 -29.644531 14.882812 -30.785156 19.40625 -30.578125 C 24 -30.359375 27.613281 -28.957031 30.25 -26.375 C 32.582031 -24.101562 33.789062 -21.296875 33.875 -17.953125 L 24.140625 -18.421875 C 23.773438 -21.492188 22.140625 -23.097656 19.234375 -23.234375 C 15.109375 -23.429688 12.90625 -20.53125 12.625 -14.53125 C 12.351562 -8.914062 14.222656 -6.015625 18.234375 -5.828125 C 21.410156 -5.671875 23.359375 -7.363281 24.078125 -10.90625 Z M 33.75 -10.4375 "/></g></g></g><g fill="#ffffff" fill-opacity="1"><g transform="translate(227.455932, 322.159361)"><g><path d="M 17.953125 -0.171875 C 12.804688 0.109375 8.625 -1.351562 5.40625 -4.5625 C 2.625 -7.351562 1.109375 -10.96875 0.859375 -15.40625 C 0.566406 -20.519531 2.019531 -24.675781 5.21875 -27.875 C 8.019531 -30.644531 11.640625 -32.15625 16.078125 -32.40625 C 21.265625 -32.695312 25.460938 -31.253906 28.671875 -28.078125 C 31.441406 -25.359375 32.953125 -21.757812 33.203125 -17.28125 C 33.484375 -12.132812 32.019531 -7.957031 28.8125 -4.75 C 26.019531 -1.945312 22.398438 -0.421875 17.953125 -0.171875 Z M 16.421875 -25.09375 C 14.535156 -24.988281 13.128906 -24.140625 12.203125 -22.546875 C 11.273438 -20.960938 10.890625 -18.773438 11.046875 -15.984375 C 11.378906 -10.085938 13.546875 -7.25 17.546875 -7.46875 C 21.554688 -7.695312 23.394531 -10.78125 23.0625 -16.71875 C 22.726562 -22.53125 20.515625 -25.320312 16.421875 -25.09375 Z M 16.421875 -25.09375 "/></g></g></g><g fill="#ffffff" fill-opacity="1"><g transform="translate(265.390747, 319.950483)"><g><path d="M 26.53125 -47.203125 L 33.40625 -5.515625 L 23.46875 -3.875 L 22.890625 -7.421875 C 21.617188 -4.222656 19.117188 -2.316406 15.390625 -1.703125 C 11.035156 -0.984375 7.347656 -2.066406 4.328125 -4.953125 C 1.703125 -7.515625 0.015625 -11.066406 -0.734375 -15.609375 C -1.566406 -20.691406 -0.875 -24.882812 1.34375 -28.1875 C 3.238281 -31.132812 5.988281 -32.90625 9.59375 -33.5 C 13.363281 -34.125 16.519531 -33.15625 19.0625 -30.59375 L 16.59375 -45.5625 Z M 13.96875 -26.28125 C 12.0625 -25.96875 10.707031 -25.015625 9.90625 -23.421875 C 9.113281 -21.835938 8.929688 -19.765625 9.359375 -17.203125 C 10.234375 -11.890625 12.648438 -9.5625 16.609375 -10.21875 C 18.503906 -10.53125 19.867188 -11.484375 20.703125 -13.078125 C 21.535156 -14.671875 21.75 -16.707031 21.34375 -19.1875 C 20.925781 -21.71875 20.054688 -23.609375 18.734375 -24.859375 C 17.421875 -26.117188 15.832031 -26.59375 13.96875 -26.28125 Z M 13.96875 -26.28125 "/></g></g></g><g fill="#ffffff" fill-opacity="1"><g transform="translate(304.315155, 313.377142)"><g><path d="M 30 -18.0625 C 30.039062 -16.195312 29.617188 -14.347656 28.734375 -12.515625 C 26.734375 -8.367188 23.160156 -5.578125 18.015625 -4.140625 C 13.347656 -2.847656 9.210938 -3.09375 5.609375 -4.875 C 1.609375 -6.851562 -1.050781 -10.210938 -2.375 -14.953125 C -3.75 -19.921875 -3.1875 -24.363281 -0.6875 -28.28125 C 1.46875 -31.664062 4.6875 -33.953125 8.96875 -35.140625 C 14.164062 -36.585938 18.640625 -35.988281 22.390625 -33.34375 C 25.691406 -31.03125 28.019531 -27.445312 29.375 -22.59375 C 29.46875 -22.257812 29.550781 -21.960938 29.625 -21.703125 L 7.671875 -15.609375 C 8.335938 -13.492188 9.421875 -12.003906 10.921875 -11.140625 C 12.429688 -10.273438 14.191406 -10.117188 16.203125 -10.671875 C 18.660156 -11.359375 20.226562 -12.976562 20.90625 -15.53125 Z M 18.59375 -24.5625 C 17.039062 -28.25 14.484375 -29.597656 10.921875 -28.609375 C 7.316406 -27.609375 5.765625 -25.117188 6.265625 -21.140625 Z M 18.59375 -24.5625 "/></g></g></g></svg>